HIERARCHY
ROOT __0
{
	OFFSET 0.0 0.0 0.0
	CHANNELS 0
	JOINT Bone
	{
		OFFSET -0.441137 0.000000 -0.879299
		CHANNELS 6 Xposition Yposition Zposition Xrotation Yrotation Zrotation
		JOINT Bone.001
		{
			OFFSET -1.044118 0.000000 2.758596
			CHANNELS 3 Xrotation Yrotation Zrotation
			JOINT Bone.002
			{
				OFFSET -0.197107 -0.120437 2.846406
				CHANNELS 3 Xrotation Yrotation Zrotation
				JOINT Bone.003
				{
					OFFSET -0.841422 0.120437 2.826213
					CHANNELS 3 Xrotation Yrotation Zrotation
					JOINT Bone.004
					{
						OFFSET -0.201381 -0.000000 2.503220
						CHANNELS 3 Xrotation Yrotation Zrotation
						JOINT Bone.005
						{
							OFFSET 0.778249 -0.000000 4.437727
							CHANNELS 6 Xposition Yposition Zposition Xrotation Yrotation Zrotation
							JOINT Bone.006
							{
								OFFSET 0.387982 0.000000 0.969224
								CHANNELS 3 Xrotation Yrotation Zrotation
								JOINT Bone.007
								{
									OFFSET 0.129733 -0.000000 2.383711
									CHANNELS 3 Xrotation Yrotation Zrotation
									JOINT Bone.007_end
									{
										OFFSET 0.851824 -0.000000 3.284870
										CHANNELS 3 Xrotation Yrotation Zrotation
										End Site
										{
											OFFSET 0.851824 -0.000000 3.284870
										}
									}
								}
							}
						}
						JOINT lats.l
						{
							OFFSET 0.778249 -0.000000 4.437727
							CHANNELS 6 Xposition Yposition Zposition Xrotation Yrotation Zrotation
							JOINT shoulder.l
							{
								OFFSET 0.479078 4.011610 -1.588903
								CHANNELS 3 Xrotation Yrotation Zrotation
								JOINT upper_arm.l
								{
									OFFSET -0.278611 1.947668 -1.744180
									CHANNELS 3 Xrotation Yrotation Zrotation
									JOINT forarm.l
									{
										OFFSET -0.656402 2.906964 -5.465096
										CHANNELS 3 Xrotation Yrotation Zrotation
										JOINT hand_1.l
										{
											OFFSET 1.213382 3.372078 -5.261601
											CHANNELS 3 Xrotation Yrotation Zrotation
											JOINT finger_1_1.l
											{
												OFFSET 1.915073 -0.154698 -2.425662
												CHANNELS 3 Xrotation Yrotation Zrotation
												JOINT finger_1_2.l
												{
													OFFSET 0.265828 0.018154 -0.982053
													CHANNELS 3 Xrotation Yrotation Zrotation
													JOINT finger_1_2.l_end
													{
														OFFSET 0.259668 -0.058760 -0.818377
														CHANNELS 3 Xrotation Yrotation Zrotation
														End Site
														{
															OFFSET 0.259668 -0.058760 -0.818377
														}
													}
												}
											}
										}
										JOINT hand_2.l
										{
											OFFSET 1.213382 3.372078 -5.261601
											CHANNELS 3 Xrotation Yrotation Zrotation
											JOINT finger_2_1.l
											{
												OFFSET 1.082807 1.055983 -3.153127
												CHANNELS 3 Xrotation Yrotation Zrotation
												JOINT finger_2_2.l
												{
													OFFSET 0.303461 0.229445 -0.943015
													CHANNELS 3 Xrotation Yrotation Zrotation
													JOINT finger_2_3.l
													{
														OFFSET 0.164459 -0.032780 -0.944187
														CHANNELS 3 Xrotation Yrotation Zrotation
														JOINT finger_2_3.l_end
														{
															OFFSET 0.124730 -0.053766 -0.660824
															CHANNELS 3 Xrotation Yrotation Zrotation
															End Site
															{
																OFFSET 0.124730 -0.053766 -0.660825
															}
														}
													}
												}
											}
										}
										JOINT hand_3.l
										{
											OFFSET 1.213382 3.372078 -5.261601
											CHANNELS 3 Xrotation Yrotation Zrotation
											JOINT finger_3_1.l
											{
												OFFSET 0.438745 1.366320 -3.503445
												CHANNELS 3 Xrotation Yrotation Zrotation
												JOINT finger_3_2.l
												{
													OFFSET 0.039193 0.200943 -0.808669
													CHANNELS 3 Xrotation Yrotation Zrotation
													JOINT finger_3_3.l
													{
														OFFSET 0.045546 0.076140 -0.989924
														CHANNELS 3 Xrotation Yrotation Zrotation
														JOINT finger_3_3.l_end
														{
															OFFSET -0.026910 0.082433 -0.590995
															CHANNELS 3 Xrotation Yrotation Zrotation
															End Site
															{
																OFFSET -0.026910 0.082433 -0.590995
															}
														}
													}
												}
											}
										}
										JOINT hand_4.l
										{
											OFFSET 1.213382 3.372078 -5.261601
											CHANNELS 3 Xrotation Yrotation Zrotation
											JOINT finger_4_1.l
											{
												OFFSET -0.299673 1.339034 -3.150754
												CHANNELS 3 Xrotation Yrotation Zrotation
												JOINT finger_4_2.l
												{
													OFFSET -0.040232 0.259658 -0.991301
													CHANNELS 3 Xrotation Yrotation Zrotation
													JOINT finger_4_3.l
													{
														OFFSET -0.049955 -0.074366 -0.704639
														CHANNELS 3 Xrotation Yrotation Zrotation
														JOINT finger_4_3.l_end
														{
															OFFSET -0.038561 0.010272 -0.631543
															CHANNELS 3 Xrotation Yrotation Zrotation
															End Site
															{
																OFFSET -0.038561 0.010272 -0.631544
															}
														}
													}
												}
											}
										}
										JOINT hand_5.l
										{
											OFFSET 1.213382 3.372078 -5.261601
											CHANNELS 3 Xrotation Yrotation Zrotation
											JOINT finger_5_1.l
											{
												OFFSET -0.897300 1.214401 -3.085588
												CHANNELS 3 Xrotation Yrotation Zrotation
												JOINT finger_5_2.l
												{
													OFFSET -0.175868 0.027259 -0.471411
													CHANNELS 3 Xrotation Yrotation Zrotation
													JOINT finger_5_3.l
													{
														OFFSET -0.183997 -0.195309 -0.687122
														CHANNELS 3 Xrotation Yrotation Zrotation
														JOINT finger_5_3.l_end
														{
															OFFSET -0.109424 -0.138382 -0.509002
															CHANNELS 3 Xrotation Yrotation Zrotation
															End Site
															{
																OFFSET -0.109424 -0.138382 -0.509002
															}
														}
													}
												}
											}
										}
									}
								}
							}
						}
						JOINT lats.r
						{
							OFFSET 0.787371 0.000134 4.437727
							CHANNELS 6 Xposition Yposition Zposition Xrotation Yrotation Zrotation
							JOINT shoulder.r
							{
								OFFSET 0.465146 -4.086555 -1.588903
								CHANNELS 3 Xrotation Yrotation Zrotation
								JOINT upper_arm.r
								{
									OFFSET -0.284825 -1.931523 -1.744180
									CHANNELS 3 Xrotation Yrotation Zrotation
									JOINT forarm.r
									{
										OFFSET -0.654372 -2.870988 -5.465096
										CHANNELS 3 Xrotation Yrotation Zrotation
										JOINT hand_1.r
										{
											OFFSET 0.752152 -3.427905 -5.261599
											CHANNELS 3 Xrotation Yrotation Zrotation
											JOINT finger_1_1.r
											{
												OFFSET 1.880342 0.268991 -2.425664
												CHANNELS 3 Xrotation Yrotation Zrotation
												JOINT finger_1_2.r
												{
													OFFSET 0.412765 -0.031263 -0.982053
													CHANNELS 3 Xrotation Yrotation Zrotation
													JOINT finger_1_2.r_end
													{
														OFFSET 0.265487 -0.028934 -0.818377
														CHANNELS 3 Xrotation Yrotation Zrotation
														End Site
														{
															OFFSET 0.265487 -0.028934 -0.818377
														}
													}
												}
											}
										}
										JOINT hand_2.r
										{
											OFFSET 0.752152 -3.427905 -5.261599
											CHANNELS 3 Xrotation Yrotation Zrotation
											JOINT finger_2_1.r
											{
												OFFSET 1.098547 -1.108187 -3.153125
												CHANNELS 3 Xrotation Yrotation Zrotation
												JOINT finger_2_2.r
												{
													OFFSET 0.291755 0.021010 -0.943020
													CHANNELS 3 Xrotation Yrotation Zrotation
													JOINT finger_2_3.r
													{
														OFFSET 0.186568 0.006100 -0.944185
														CHANNELS 3 Xrotation Yrotation Zrotation
														JOINT finger_2_3.r_end
														{
															OFFSET 0.133039 -0.006334 -0.660824
															CHANNELS 3 Xrotation Yrotation Zrotation
															End Site
															{
																OFFSET 0.133039 -0.006334 -0.660825
															}
														}
													}
												}
											}
										}
										JOINT hand_3.r
										{
											OFFSET 0.752152 -3.427905 -5.261599
											CHANNELS 3 Xrotation Yrotation Zrotation
											JOINT finger_3_1.r
											{
												OFFSET 0.373696 -1.343682 -3.332383
												CHANNELS 3 Xrotation Yrotation Zrotation
												JOINT finger_3_2.r
												{
													OFFSET 0.085230 -0.157215 -0.979734
													CHANNELS 3 Xrotation Yrotation Zrotation
													JOINT finger_3_3.r
													{
														OFFSET 0.018107 -0.037604 -0.989924
														CHANNELS 3 Xrotation Yrotation Zrotation
														JOINT finger_3_3.r_end
														{
															OFFSET 0.010870 -0.087893 -0.590995
															CHANNELS 3 Xrotation Yrotation Zrotation
															End Site
															{
																OFFSET 0.010870 -0.087893 -0.590994
															}
														}
													}
												}
											}
										}
										JOINT hand_4.r
										{
											OFFSET 0.752152 -3.427905 -5.261599
											CHANNELS 3 Xrotation Yrotation Zrotation
											JOINT finger_4_1.r
											{
												OFFSET -0.266866 -1.284353 -3.150754
												CHANNELS 3 Xrotation Yrotation Zrotation
												JOINT finger_4_2.r
												{
													OFFSET -0.081403 -0.106487 -0.991301
													CHANNELS 3 Xrotation Yrotation Zrotation
													JOINT finger_4_3.r
													{
														OFFSET -0.046220 0.038109 -0.704639
														CHANNELS 3 Xrotation Yrotation Zrotation
														JOINT finger_4_3.r_end
														{
															OFFSET -0.054081 -0.011491 -0.631543
															CHANNELS 3 Xrotation Yrotation Zrotation
															End Site
															{
																OFFSET -0.054081 -0.011491 -0.631543
															}
														}
													}
												}
											}
										}
										JOINT hand_5.r
										{
											OFFSET 0.752152 -3.427905 -5.261599
											CHANNELS 3 Xrotation Yrotation Zrotation
											JOINT finger_5_1.r
											{
												OFFSET -0.929662 -1.118169 -3.085588
												CHANNELS 3 Xrotation Yrotation Zrotation
												JOINT finger_5_2.r
												{
													OFFSET -0.166172 0.015477 -0.471413
													CHANNELS 3 Xrotation Yrotation Zrotation
													JOINT finger_5_3.r
													{
														OFFSET -0.186638 0.183818 -0.687119
														CHANNELS 3 Xrotation Yrotation Zrotation
														JOINT finger_5_3.r_end
														{
															OFFSET -0.064874 0.172217 -0.509002
															CHANNELS 3 Xrotation Yrotation Zrotation
															End Site
															{
																OFFSET -0.064874 0.172217 -0.509002
															}
														}
													}
												}
											}
										}
									}
								}
							}
						}
					}
				}
			}
		}
	}
	JOINT hip.l
	{
		OFFSET -0.441137 0.000000 -0.879299
		CHANNELS 6 Xposition Yposition Zposition Xrotation Yrotation Zrotation
		JOINT upper_leg.l
		{
			OFFSET 0.314229 2.757148 -1.947668
			CHANNELS 3 Xrotation Yrotation Zrotation
			JOINT lower_leg.l
			{
				OFFSET -1.127799 1.126559 -10.151125
				CHANNELS 3 Xrotation Yrotation Zrotation
				JOINT foot_1.l
				{
					OFFSET -0.944283 0.488371 -12.211979
					CHANNELS 3 Xrotation Yrotation Zrotation
					JOINT foot_2.l
					{
						OFFSET 1.946432 0.043195 -1.464783
						CHANNELS 3 Xrotation Yrotation Zrotation
						JOINT foot_2.l_end
						{
							OFFSET 2.546019 0.158223 -0.481493
							CHANNELS 3 Xrotation Yrotation Zrotation
							End Site
							{
								OFFSET 2.546019 0.158223 -0.481493
							}
						}
					}
				}
			}
		}
	}
	JOINT hip.r
	{
		OFFSET -0.435242 0.002287 -0.879299
		CHANNELS 6 Xposition Yposition Zposition Xrotation Yrotation Zrotation
		JOINT upper_leg.r
		{
			OFFSET 0.304085 -2.902024 -1.947668
			CHANNELS 3 Xrotation Yrotation Zrotation
			JOINT lower_leg.r
			{
				OFFSET -1.129197 -1.069468 -10.151123
				CHANNELS 3 Xrotation Yrotation Zrotation
				JOINT foot_1.r
				{
					OFFSET -0.940627 -0.441122 -12.211980
					CHANNELS 3 Xrotation Yrotation Zrotation
					JOINT foot_2.r
					{
						OFFSET 1.941922 -0.139302 -1.464783
						CHANNELS 3 Xrotation Yrotation Zrotation
						JOINT foot_2.r_end
						{
							OFFSET 2.544673 -0.283811 -0.481493
							CHANNELS 3 Xrotation Yrotation Zrotation
							End Site
							{
								OFFSET 2.544673 -0.283811 -0.481493
							}
						}
					}
				}
			}
		}
	}
}
MOTION
Frames: 4
Frame Time: 0.041667
-0.441095 0.000000 -1.011872 3.785832 2.228479 1.561528 -0.000001 -7.222127 -0.000000 0.000000 -0.000003 0.000000 0.000001 12.582660 0.000000 0.142109 -14.818032 -0.939387 0.778249 -0.000000 4.437731 0.000001 0.000000 -0.000000 -0.109930 2.193871 -1.073873 -0.000001 7.083847 -0.000001 0.000000 0.000001 0.000000 0.778402 -0.000001 4.436556 -0.000007 -14.905100 -0.000001 -0.000000 30.521243 0.000007 -15.657261 -37.534676 7.330105 -10.565919 26.634123 -0.127000 -0.000008 -0.000002 -0.000003 -0.000003 0.000004 0.000001 -0.000001 0.000003 0.000003 -0.000001 0.000000 0.000002 -0.000002 -0.000004 -0.000001 -0.000000 0.000005 0.000000 -0.000003 0.000001 -0.000000 -0.000001 0.000002 0.000001 -0.000000 0.000001 -0.000000 0.000003 -0.000001 -0.000001 -0.000002 0.000001 -0.000000 -0.000004 -0.000000 -0.000001 -0.000002 0.000001 0.000000 0.000002 0.000000 -0.000000 0.000000 -0.000002 -0.000002 -0.000004 -0.000001 0.000001 0.000005 0.000001 -0.000000 0.000002 0.000000 0.000000 -0.000001 -0.000000 0.000000 -0.000007 0.000003 0.000002 0.000003 0.000002 -0.000001 0.000003 -0.000001 -0.000000 -0.000000 -0.000004 -0.000000 -0.000004 -0.000000 0.000001 0.787216 0.000134 4.438900 0.000008 -14.905090 -0.000004 -0.000015 42.629994 -0.000015 11.006496 -34.818430 16.563641 3.691868 6.760624 -2.750294 0.000011 -0.000015 0.000006 -0.000001 -0.000000 0.000001 0.000003 0.000000 -0.000002 0.000001 -0.000001 -0.000002 0.000002 0.000003 -0.000000 0.000003 -0.000006 0.000003 -0.000000 -0.000004 -0.000003 -0.000000 0.000001 -0.000002 -0.000002 0.000002 -0.000002 0.000000 -0.000002 0.000001 0.000005 0.000002 -0.000005 0.000001 0.000000 -0.000003 0.000002 0.000001 -0.000002 0.000001 0.000000 -0.000001 0.000004 0.000001 0.000001 0.000001 0.000000 0.000001 -0.000002 0.000000 -0.000002 -0.000001 -0.000002 0.000002 -0.000001 0.000000 -0.000002 0.000007 0.000001 -0.000000 -0.000000 0.000001 -0.000000 -0.000000 -0.000004 0.000001 0.000004 -0.000001 -0.000001 -0.000001 0.000000 -0.000001 -0.441095 0.000000 -1.011872 -0.000007 -11.421102 -0.000003 0.000001 -3.700547 0.000002 -0.000003 15.767273 0.000001 -0.000000 -1.842257 0.000001 0.000000 0.000001 0.000000 0.000000 0.000001 0.000000 -0.435326 0.002287 -1.013084 0.000002 -11.421103 0.000003 -0.000002 7.634678 -0.000000 -0.000003 10.196815 -0.000004 0.000003 -14.719594 0.000001 -0.000002 4.180307 0.000003 -0.000000 0.000000 -0.000000 
-0.441100 0.000000 -1.104144 3.775558 3.048625 1.534765 0.000001 -7.184843 -0.000001 0.000001 -0.000001 0.000000 0.000001 12.719881 -0.000001 0.140504 -11.841074 -0.792657 0.778250 0.000000 4.437733 -0.000000 0.000000 -0.000000 -0.070991 4.971284 -0.906913 0.000000 7.083849 -0.000001 0.000000 -0.000001 0.000000 0.778431 0.000091 4.436095 -0.000007 -24.985916 -0.000001 0.674833 27.082960 1.835238 -15.998899 -39.873432 6.784033 -8.952835 26.492951 -1.233637 -0.000006 -0.000004 -0.000003 -0.000004 -0.000006 -0.000004 0.000001 0.000001 0.000003 -0.000002 0.000000 0.000001 -0.000006 0.000001 0.000001 0.000001 0.000012 0.000002 0.000002 0.000002 0.000000 -0.000000 0.000000 0.000001 -0.000002 0.000001 0.000000 0.000005 0.000001 0.000001 -0.000007 0.000003 0.000000 -0.000003 -0.000003 -0.000001 -0.000001 -0.000001 0.000000 0.000003 0.000000 -0.000000 -0.000003 -0.000001 -0.000001 -0.000006 -0.000000 0.000001 0.000004 0.000001 -0.000001 0.000002 -0.000000 0.000001 -0.000001 0.000000 0.000000 -0.000005 0.000005 0.000002 0.000001 0.000000 -0.000001 0.000004 -0.000005 -0.000001 0.000005 -0.000006 -0.000000 -0.000003 0.000001 -0.000000 0.786632 0.000134 4.439424 -0.015010 -24.339000 0.182497 0.608629 39.547721 0.975605 7.222996 -33.635434 14.600815 7.214794 6.112028 -2.798899 0.000018 -0.000012 0.000003 0.000003 0.000005 0.000001 0.000004 0.000003 -0.000004 0.000002 0.000001 -0.000002 0.000004 -0.000001 -0.000002 0.000002 -0.000002 0.000003 -0.000001 -0.000005 0.000001 -0.000000 -0.000000 -0.000000 -0.000000 -0.000000 0.000001 0.000002 -0.000001 -0.000001 0.000004 0.000001 -0.000001 0.000001 -0.000000 -0.000000 0.000002 -0.000001 0.000000 -0.000000 -0.000001 0.000001 0.000007 0.000002 -0.000004 0.000003 -0.000002 -0.000001 -0.000000 0.000000 -0.000002 -0.000001 -0.000002 -0.000002 -0.000001 0.000000 -0.000000 0.000006 0.000002 -0.000001 0.000000 0.000005 0.000000 0.000000 -0.000004 0.000001 0.000006 -0.000002 0.000000 -0.000001 0.000001 -0.000001 -0.441052 0.000000 -1.103938 -0.000009 -7.774626 -0.000003 0.000005 -11.968336 -0.000000 -0.000004 18.945372 0.000002 0.000000 -1.799205 0.000001 0.000000 -0.000003 0.000001 -0.000000 0.000001 -0.000000 -0.435364 0.002288 -1.105414 -0.000001 -7.774625 0.000003 0.000003 0.912474 -0.000001 -0.000003 13.374917 -0.000003 0.000004 -17.696940 -0.000002 -0.000000 4.180302 0.000004 0.000000 0.000000 -0.000001 
-0.441112 0.000000 -1.426967 3.754569 4.852440 1.476443 -0.000001 -7.076494 -0.000001 0.000001 0.000001 0.000000 0.000001 13.021778 -0.000000 0.109915 -5.266096 -0.472038 0.778250 -0.000000 4.437731 -0.000000 0.000000 -0.000000 -0.013177 11.102834 -0.540781 -0.000000 7.083844 -0.000001 0.000000 0.000005 -0.000000 0.778791 0.000242 4.435048 -0.000009 -48.268083 -0.000003 3.137816 17.400592 6.812919 -17.224205 -46.402659 4.930980 -4.702954 25.920232 -4.182405 -0.000005 -0.000001 -0.000002 -0.000002 -0.000000 -0.000004 -0.000002 0.000005 0.000004 -0.000001 -0.000003 -0.000000 -0.000004 0.000001 0.000001 -0.000001 0.000005 0.000000 -0.000001 -0.000002 0.000000 0.000002 0.000001 0.000001 0.000002 0.000001 0.000001 0.000007 0.000003 0.000001 -0.000005 0.000000 0.000000 -0.000000 0.000003 0.000001 0.000004 0.000005 0.000001 0.000001 0.000000 -0.000000 0.000001 -0.000000 -0.000003 -0.000010 -0.000003 0.000000 0.000001 0.000002 0.000001 0.000001 0.000002 -0.000001 -0.000000 -0.000002 0.000000 -0.000001 0.000006 0.000003 -0.000001 -0.000005 -0.000001 0.000001 -0.000001 -0.000002 -0.000001 -0.000005 0.000004 -0.000005 0.000006 -0.000001 0.785346 0.000133 4.440569 0.086734 -46.141664 0.569905 2.575268 31.109398 3.586975 -2.702734 -29.895168 9.766418 17.026755 4.229841 -2.656720 0.000012 -0.000017 0.000003 0.000001 -0.000002 0.000003 0.000003 -0.000002 -0.000004 -0.000002 -0.000002 -0.000003 0.000005 0.000003 -0.000003 0.000003 -0.000004 0.000005 -0.000003 -0.000002 -0.000002 0.000000 0.000003 -0.000001 -0.000000 0.000002 -0.000000 0.000004 -0.000001 -0.000001 0.000004 0.000001 -0.000005 0.000001 0.000009 -0.000000 0.000001 0.000000 -0.000000 -0.000000 0.000002 -0.000002 0.000007 0.000000 -0.000003 0.000002 -0.000001 0.000001 0.000000 0.000003 0.000000 -0.000002 -0.000000 0.000002 -0.000002 -0.000002 -0.000002 0.000008 0.000001 -0.000001 0.000001 0.000003 0.000002 -0.000002 -0.000001 0.000002 0.000004 -0.000002 0.000001 0.000001 0.000001 -0.000001 -0.440957 0.000000 -1.426309 -0.000011 0.293574 0.000000 0.000005 -30.743672 -0.000004 -0.000004 27.598525 0.000004 -0.000000 -1.704772 0.000001 0.000000 0.000001 0.000001 -0.000000 0.000001 -0.000000 -0.435447 0.002288 -1.428345 0.000003 0.293573 0.000001 0.000003 -14.398551 -0.000002 -0.000004 22.028069 -0.000002 0.000006 -22.035689 0.000000 0.000000 4.180304 0.000005 -0.000000 0.000000 -0.000000 
-0.441126 0.000000 -2.049354 3.736098 6.655894 1.418891 -0.000000 -6.902334 -0.000001 0.000001 0.000000 -0.000000 0.000001 13.323666 -0.000001 0.042727 1.308613 -0.149185 0.778250 0.000000 4.437732 0.000000 0.000000 -0.000000 0.005275 17.234620 -0.171078 -0.000001 7.083850 -0.000001 0.000000 -0.000002 -0.000000 0.779892 0.000272 4.433921 -0.000004 -71.550220 -0.000000 8.512063 2.537884 14.722343 -20.339441 -56.404389 0.744839 1.236725 24.632780 -8.346593 -0.000011 -0.000004 -0.000003 -0.000001 0.000007 -0.000000 0.000001 0.000005 0.000003 0.000001 0.000004 0.000001 -0.000006 -0.000002 -0.000000 -0.000001 0.000005 -0.000000 0.000002 0.000003 0.000001 -0.000001 0.000000 0.000001 0.000000 0.000001 0.000000 0.000002 0.000000 -0.000000 -0.000006 0.000002 0.000000 -0.000001 0.000001 0.000000 0.000002 0.000001 0.000000 0.000001 0.000000 -0.000000 -0.000001 -0.000001 -0.000001 -0.000007 0.000001 0.000002 0.000005 0.000000 -0.000000 0.000001 0.000000 -0.000001 -0.000000 -0.000000 0.000000 -0.000007 0.000004 0.000003 -0.000002 0.000002 0.000001 0.000000 -0.000001 -0.000002 -0.000001 -0.000003 0.000002 -0.000000 0.000001 -0.000000 0.784060 0.000134 4.441720 0.487348 -68.877212 0.991164 6.206224 18.598735 7.600283 -16.349245 -23.159151 4.121430 32.107811 1.320675 -1.658958 0.000010 -0.000010 0.000008 -0.000005 -0.000004 0.000003 0.000001 0.000003 -0.000007 0.000001 0.000001 -0.000003 -0.000001 0.000003 -0.000001 0.000001 -0.000006 0.000003 -0.000006 0.000002 -0.000001 -0.000001 -0.000001 0.000003 0.000002 -0.000000 -0.000001 -0.000001 -0.000001 -0.000002 0.000005 -0.000001 -0.000003 0.000007 0.000005 -0.000003 0.000003 0.000001 0.000001 0.000000 -0.000001 0.000002 0.000000 0.000003 -0.000001 0.000003 -0.000001 -0.000002 0.000001 -0.000003 -0.000002 0.000003 -0.000003 0.000002 0.000000 -0.000003 -0.000000 0.000002 0.000003 0.000000 0.000002 0.000001 0.000002 -0.000004 -0.000001 0.000001 0.000002 0.000002 0.000002 0.000001 -0.000002 0.000001 -0.440865 0.000000 -2.048244 -0.000006 8.364065 0.000001 -0.000005 -49.518994 -0.000009 -0.000009 40.384754 0.000010 0.000000 -1.610977 0.000000 0.000000 0.000002 0.000000 0.000000 0.000001 -0.000000 -0.435525 0.002288 -2.050782 0.000000 8.364065 0.000004 0.000005 -30.265282 -0.000003 -0.000005 34.814290 0.000001 -0.000000 -27.207831 -0.000007 -0.000001 4.180303 0.000004 0.000000 0.000000 -0.000000 
